<svg xmlns="http://www.w3.org/2000/svg" xmlns:svg="http://www.w3.org/2000/svg" id="svg3" version="1.2" viewBox="0 0 1000 1000"><defs id="defs3"><linearGradient id="swatch26"><stop style="stop-color:#000;stop-opacity:1" id="stop26" offset="0"/></linearGradient><linearGradient id="swatch25"><stop style="stop-color:#407b28;stop-opacity:1" id="stop25" offset="0"/></linearGradient></defs><path id="path1" fill="#68bc71" d="m 993.75002,114.1 c 0,171.8 3.1,595.3 -493.8,885.9 C 3.0500233,709.4 6.2500233,285.9 6.2500233,114.1 159.35002,35.9 345.25002,0 499.95002,0 c 154.7,0 340.6,35.9 493.8,114.1 z"/><path id="path2" fill="#67b279" d="M500 1000C3.1 709.4 6.2 285.9 6.2 114.1 159.4 35.9 345.3 0 500 0z"/><path id="path3" fill="#fff" d="m 225,449.6 c 15,-11.7 80,-53.4 128.3,1.6 L 453.3,569.6 720,297.9 c 11.7,-10 31.7,-23.3 55,-5 L 455,716.2 Z" style="display:none"/><circle style="display:none;fill:#fff;fill-opacity:.5;stroke:#fff;stroke-width:8e-08;stroke-linecap:round;stroke-linejoin:round;stroke-miterlimit:100;stroke-dasharray:none;stroke-opacity:.502604" id="path18" cx="-500" cy="426" r="400" transform="scale(-1,1)"/><path id="path12-8" style="fill:#fff;fill-opacity:1;stroke:#fff;stroke-width:4.00001;stroke-linecap:round;stroke-linejoin:round;stroke-miterlimit:100;stroke-dasharray:none;stroke-opacity:1" d="m -75.867249,555.75073 c -1.469322,-39.92741 -12.296964,-76.43624 -30.823861,-104.61661 -21.05517,28.18037 -47.89663,45.38022 -75.18829,53.68483 l 42.51192,20.42415 c -33.35434,61.94297 -101.60764,105.3289 -167.51689,101.23666 -42.42317,-1.43193 -82.3318,-22.18867 -112.01355,-52.33871 -21.09944,-21.43232 -53.37423,-31.44115 -79.38397,-16.1329 l -10.3958,6.11853 c 43.49744,68.86447 120.54256,113.80911 201.79332,112.04834 87.97224,-4.41047 162.60077,-62.73987 194.96448,-137.74518 z M -537.90127,346.51705 c 1.46924,39.92741 12.29681,76.43626 30.82364,104.61667 21.05523,-28.18031 47.89674,-45.38011 75.18842,-53.68467 l -42.51189,-20.42423 c 33.35441,-61.94281 101.60759,-105.32857 167.51673,-101.23635 42.4233,1.43194 82.33203,22.18879 112.01381,52.33897 21.0994,21.43235 53.37417,31.44124 79.38393,16.13305 l 10.39581,-6.11852 c -43.49739,-68.86468 -120.54264,-113.8095 -201.79355,-112.04872 -87.97208,4.41046 -162.60049,62.73965 -194.96429,137.74477 z" transform="matrix(0,-1.3167476,1.3167476,0,-94.029776,21.910887)"/></svg>